<?xml version="1.0" encoding="UTF-8" standalone="no"?><!-- Generator: Gravit.io --><svg xmlns="http://www.w3.org/2000/svg" xmlns:xlink="http://www.w3.org/1999/xlink" style="isolation:isolate" viewBox="0 0 300 300" width="300pt" height="300pt">
<defs>
<clipPath id="_clipPath_VbewNKOgWE5XmBNgsoGV0HE1cm3D9GGc">
<rect width="300" height="300"/></clipPath></defs><g clip-path="url(#_clipPath_VbewNKOgWE5XmBNgsoGV0HE1cm3D9GGc)"><g clip-path="url(#_clipPath_qn6dVo6SfAbUpRjizNTvgHY5r2p18N3g)"><text transform="matrix(1.128,0,0,1.027,53.54,253.36)" style="font-family:'Megrim';font-weight:400;font-size:300px;font-style:normal;fill:#000000;stroke:#000000;stroke-width:4;">M</text></g>
<defs>

<clipPath id="_clipPath_qn6dVo6SfAbUpRjizNTvgHY5r2p18N3g"><rect x="0" y="0" width="215" height="324" transform="matrix(1.128,0,0,1.027,40,-30)"/></clipPath></defs>
<g id="dots">
<circle vector-effect="non-scaling-stroke" cx="78.00000000000001" cy="236.00000000000003" r="8" fill="rgb(235,235,235)"/>
<circle vector-effect="non-scaling-stroke" cx="79" cy="29" r="7" fill="rgb(235,235,235)"/>
<circle vector-effect="non-scaling-stroke" cx="160.5" cy="192.5" r="4.5" fill="rgb(235,235,235)"/> 
<circle vector-effect="non-scaling-stroke" cx="242" cy="25.500000000000014" r="3.5" fill="rgb(235,235,235)"/> 
<circle vector-effect="non-scaling-stroke" cx="102.5" cy="240.5" r="3.5" fill="rgb(235,235,235)"/> 
<ellipse vector-effect="non-scaling-stroke" cx="245.49999999999997" cy="238.5" rx="5.25" ry="5.500000000000028" fill="rgb(235,235,235)"/></g>
<g id="path">
<path d=" M 78 236 L 79 29 L 78 236 L 78 236 L 78 236 L 78 236 Z  M 79 29 L 160.5 192.5 L 79 29 L 79 29 L 79 29 L 79 29 Z  M 160.5 192.5 L 242 25.5 L 160.5 192.5 L 160.5 192.5 L 160.5 192.5 Z  M 242 25.5 L 242 25.5 L 245.5 240.5 L 242 25.5 L 242 25.5 Z  M 245.5 240.5 L 102.5 240.5 L 245.5 240.5 Z " fill-rule="evenodd" fill="none" vector-effect="non-scaling-stroke" stroke-width="1" stroke="rgb(247,247,247)" stroke-linejoin="miter" stroke-linecap="square" stroke-miterlimit="3"/></g>

</svg>

