<?xml version="1.0" encoding="UTF-8" standalone="no"?><!-- Generator: Gravit.io --><svg xmlns="http://www.w3.org/2000/svg" xmlns:xlink="http://www.w3.org/1999/xlink" style="isolation:isolate" viewBox="0 0 427 286" width="427pt" height="286pt"><defs><clipPath id="_clipPath_A5ZFAUdbEmQqvpsVpyW3wmDhkFRvA7kU"><rect width="427" height="286"/></clipPath></defs><g clip-path="url(#_clipPath_A5ZFAUdbEmQqvpsVpyW3wmDhkFRvA7kU)"><g style="isolation:isolate"><ellipse vector-effect="non-scaling-stroke" cx="293" cy="221.49999999999883" rx="5.25" ry="5.500000000000028" fill="rgb(235,235,235)"/><circle vector-effect="non-scaling-stroke" cx="153.4999999999999" cy="221.49999999999883" r="3.5" fill="rgb(235,235,235)"/><circle vector-effect="non-scaling-stroke" cx="293.0000000000011" cy="6.500000000000148" r="3.5" fill="rgb(235,235,235)"/><circle vector-effect="non-scaling-stroke" cx="211.50000000000009" cy="173.50000000000068" r="4.5" fill="rgb(235,235,235)"/><circle vector-effect="non-scaling-stroke" cx="130.00000000000034" cy="10" r="7" fill="rgb(235,235,235)"/><circle vector-effect="non-scaling-stroke" cx="129" cy="217.00000000000014" r="8" fill="rgb(235,235,235)"/><mask id="_mask_6qqGY7GZy60tZtscdaT67rLpwrOfgPVn"><line x1="153.5" y1="221.5" x2="296.5" y2="221.5" fill="white" stroke="none"/></mask><line x1="153.5" y1="221.5" x2="296.5" y2="221.5" mask="url(#_mask_6qqGY7GZy60tZtscdaT67rLpwrOfgPVn)" vector-effect="non-scaling-stroke" stroke-width="4" stroke="rgb(255,255,255)" stroke-linejoin="miter" stroke-linecap="square" stroke-miterlimit="3"/><line x1="293" y1="218" x2="293" y2="6.5" vector-effect="non-scaling-stroke" stroke-width="1" stroke="rgb(255,255,255)" stroke-linejoin="miter" stroke-linecap="square" stroke-miterlimit="3"/><mask id="_mask_Xzz136KBbvwLl7YECa61leYirW9Mjdfr"><line x1="211.5" y1="173.5" x2="293" y2="6.5" fill="white" stroke="none"/></mask><line x1="211.5" y1="173.5" x2="293" y2="6.5" mask="url(#_mask_Xzz136KBbvwLl7YECa61leYirW9Mjdfr)" vector-effect="non-scaling-stroke" stroke-width="4" stroke="rgb(255,255,255)" stroke-linejoin="miter" stroke-linecap="square" stroke-miterlimit="3"/><line x1="129" y1="8.25" x2="211.5" y2="171.75" vector-effect="non-scaling-stroke" stroke-width="1" stroke="rgb(255,255,255)" stroke-linejoin="miter" stroke-linecap="square" stroke-miterlimit="3"/><line x1="130" y1="10" x2="130" y2="217" vector-effect="non-scaling-stroke" stroke-width="1" stroke="rgb(255,255,255)" stroke-linejoin="miter" stroke-linecap="square" stroke-miterlimit="3"/></g><g style="isolation:isolate"><g clip-path="url(#_clipPath_unD5FzFtO0NZ3HuGRceCjR51yMaOLpKl)"><text transform="matrix(1,0,0,1,306.5,199.6)" style="font-family:'Megrim';font-weight:400;font-size:27px;font-style:normal;fill:#e1e1e1;stroke:none;">CONTACT</text></g><defs><clipPath id="_clipPath_unD5FzFtO0NZ3HuGRceCjR51yMaOLpKl"><rect x="0" y="0" width="111" height="29.16" transform="matrix(1,0,0,1,306.5,175.84)"/></clipPath></defs><mask id="_mask_kCNUgiKQS0LLohzyTx6ZxCJTPWtaCyqk"><path d=" M 18 12 L 107 12 L 107 37.16 L 18 37.16 L 18 12 Z  M 18 3 L 18 37.16 M 76 3 L 18 3 M 76 3 L 94 12 M 107 37.16 L 130 8" fill-rule="evenodd" fill="white" stroke="none"/></mask><path d=" M 18 12 L 107 12 L 107 37.16 L 18 37.16 L 18 12 Z  M 18 3 L 18 37.16 M 76 3 L 18 3 M 76 3 L 94 12 M 107 37.16 L 130 8" fill-rule="evenodd" fill="none"/><path d=" M 18 12 L 107 12 L 107 37.16 L 18 37.16 L 18 12 Z  M 18 3 L 18 37.16 M 76 3 L 18 3 M 76 3 L 94 12 M 107 37.16 L 130 8" fill-rule="evenodd" fill="none" mask="url(#_mask_kCNUgiKQS0LLohzyTx6ZxCJTPWtaCyqk)" vector-effect="non-scaling-stroke" stroke-width="2" stroke="rgb(225,225,225)" stroke-linejoin="miter" stroke-linecap="square" stroke-miterlimit="3"/></g><g clip-path="url(#_clipPath_lfqV1dJdOigHFATuCl7tsTl8dxMk7jqf)"><text transform="matrix(1,0,0,1,116.5,270.2)" style="font-family:'Megrim';font-weight:400;font-size:40px;font-style:normal;fill:#dddddd;stroke:none;">MILLEDION</text></g><defs><clipPath id="_clipPath_lfqV1dJdOigHFATuCl7tsTl8dxMk7jqf"><rect x="0" y="0" width="190" height="39" transform="matrix(1,0,0,1,116.5,235)"/></clipPath></defs><g style="isolation:isolate"><g clip-path="url(#_clipPath_yqn2lMylDD2RucYrjs6R8KEGSzwQBGry)"><text transform="matrix(1,0,0,1,25,31.76)" style="font-family:'Megrim';font-weight:400;font-size:27px;font-style:normal;fill:#e1e1e1;stroke:none;">about</text></g><defs><clipPath id="_clipPath_yqn2lMylDD2RucYrjs6R8KEGSzwQBGry"><rect x="0" y="0" width="77" height="29.16" transform="matrix(1,0,0,1,25,8)"/></clipPath></defs><mask id="_mask_a4Y1cBQz6tukSVlVIb8BCcjD5GjGkvzY"><path d=" M 419 177.84 L 303.777 177.84 L 303.777 203 L 419 203 L 419 177.84 Z  M 419 168.84 L 419 203 M 343.911 168.84 L 419 168.84 M 343.911 168.84 L 320.607 177.84 M 303.777 203 L 293 223" fill-rule="evenodd" fill="white" stroke="none"/></mask><path d=" M 419 177.84 L 303.777 177.84 L 303.777 203 L 419 203 L 419 177.84 Z  M 419 168.84 L 419 203 M 343.911 168.84 L 419 168.84 M 343.911 168.84 L 320.607 177.84 M 303.777 203 L 293 223" fill-rule="evenodd" fill="none"/><path d=" M 419 177.84 L 303.777 177.84 L 303.777 203 L 419 203 L 419 177.84 Z  M 419 168.84 L 419 203 M 343.911 168.84 L 419 168.84 M 343.911 168.84 L 320.607 177.84 M 303.777 203 L 293 223" fill-rule="evenodd" fill="none" mask="url(#_mask_a4Y1cBQz6tukSVlVIb8BCcjD5GjGkvzY)" vector-effect="non-scaling-stroke" stroke-width="2" stroke="rgb(225,225,225)" stroke-linejoin="miter" stroke-linecap="square" stroke-miterlimit="3"/></g></g></svg>