<?xml version="1.0" encoding="UTF-8" standalone="no"?><!-- Generator: Gravit.io --><svg xmlns="http://www.w3.org/2000/svg" xmlns:xlink="http://www.w3.org/1999/xlink" style="isolation:isolate" viewBox="0 0 420 300" width="420pt" height="300pt">

<defs>
<clipPath id="_clipPath_IUgbtKZcJjmUiVIpBLr3CT2uyYngXqaq"><rect width="420" height="300"/>
</clipPath>
</defs>

<g clip-path="url(#_clipPath_IUgbtKZcJjmUiVIpBLr3CT2uyYngXqaq)"><rect width="420" height="300" style="fill:rgb(0,0,0)"/><g style="isolation:isolate"><circle vector-effect="non-scaling-stroke" cx="179" cy="258" r="2" fill="rgb(235,235,235)"/><circle vector-effect="non-scaling-stroke" cx="195.50000000000006" cy="186.50000000000003" r="1.5" fill="rgb(235,235,235)"/><circle vector-effect="non-scaling-stroke" cx="260.5" cy="81.5" r="3.5" fill="rgb(235,235,235)"/><circle vector-effect="non-scaling-stroke" cx="117" cy="220" r="3" fill="rgb(235,235,235)"/><ellipse vector-effect="non-scaling-stroke" cx="404" cy="33.25" rx="5" ry="5.25" fill="rgb(235,235,235)"/><ellipse vector-effect="non-scaling-stroke" cx="167.75" cy="65" rx="0.75" ry="1" fill="rgb(235,235,235)"/><circle vector-effect="non-scaling-stroke" cx="391.5" cy="4.5" r="1.5" fill="rgb(235,235,235)"/><circle vector-effect="non-scaling-stroke" cx="400" cy="17" r="1" fill="rgb(235,235,235)"/><ellipse vector-effect="non-scaling-stroke" cx="384" cy="36.75" rx="2" ry="1.75" fill="rgb(235,235,235)"/><circle vector-effect="non-scaling-stroke" cx="312" cy="269" r="2" fill="rgb(235,235,235)"/><circle vector-effect="non-scaling-stroke" cx="324.5" cy="263.5" r="3.5" fill="rgb(235,235,235)"/><circle vector-effect="non-scaling-stroke" cx="225.5" cy="233.5" r="1.5" fill="rgb(235,235,235)"/><circle vector-effect="non-scaling-stroke" cx="300.5" cy="148.5" r="1.5" fill="rgb(235,235,235)"/><circle vector-effect="non-scaling-stroke" cx="292" cy="158" r="2" fill="rgb(235,235,235)"/><ellipse vector-effect="non-scaling-stroke" cx="379.5" cy="229.75" rx="2.5" ry="2.25" fill="rgb(235,235,235)"/><circle vector-effect="non-scaling-stroke" cx="33" cy="271" r="1" fill="rgb(235,235,235)"/><mask id="_mask_KcgmIWanzqrC7gk70DQFvQHtVRGP6L1X"><circle vector-effect="non-scaling-stroke" cx="68" cy="277" r="2" fill="white" stroke="none"/></mask><circle vector-effect="non-scaling-stroke" cx="68" cy="277" r="2" fill="none"/><circle vector-effect="non-scaling-stroke" cx="68" cy="277" r="2" fill="none" mask="url(#_mask_KcgmIWanzqrC7gk70DQFvQHtVRGP6L1X)" stroke-width="2" stroke="rgb(255,255,255)" stroke-linejoin="miter" stroke-linecap="square" stroke-miterlimit="3"/><circle vector-effect="non-scaling-stroke" cx="47.5" cy="245.5" r="3.5" fill="rgb(235,235,235)"/><circle vector-effect="non-scaling-stroke" cx="372" cy="204" r="2" fill="rgb(235,235,235)"/><circle vector-effect="non-scaling-stroke" cx="305" cy="33" r="2" fill="rgb(235,235,235)"/><circle vector-effect="non-scaling-stroke" cx="359.5" cy="227.5" r="4.5" fill="rgb(235,235,235)"/><circle vector-effect="non-scaling-stroke" cx="147.5" cy="122.5" r="1.5" fill="rgb(235,235,235)"/><circle vector-effect="non-scaling-stroke" cx="135" cy="139" r="5" fill="rgb(235,235,235)"/><circle vector-effect="non-scaling-stroke" cx="41" cy="137" r="3" fill="rgb(235,235,235)"/><circle vector-effect="non-scaling-stroke" cx="168.5" cy="47.5" r="1.5" fill="rgb(235,235,235)"/><circle vector-effect="non-scaling-stroke" cx="144.5" cy="79.5" r="1.5" fill="rgb(235,235,235)"/><ellipse vector-effect="non-scaling-stroke" cx="285.5" cy="23" rx="4.5" ry="5" fill="rgb(235,235,235)"/><circle vector-effect="non-scaling-stroke" cx="62.5" cy="38.5" r="3.5" fill="rgb(235,235,235)"/></g><line x1="775" y1="156" x2="764" y2="144" vector-effect="non-scaling-stroke" stroke-width="1" stroke="rgb(255,255,255)" stroke-linejoin="miter" stroke-linecap="square" stroke-miterlimit="3"/><g opacity="0.9"><path d=" M 304 33 L 168 47 L 47 248 L 304 33 Z  M 176 135 M 155 152 M 312 272 L 304 33 L 47 248 L 312 272 Z " fill-rule="evenodd" fill="none" vector-effect="non-scaling-stroke" stroke-width="1" stroke="rgb(255,255,255)" stroke-linejoin="miter" stroke-linecap="square" stroke-miterlimit="3"/></g><g opacity="0.35"><path d=" M 322 264 L 402 32 L 40 130 L 118 216 L 322 264 Z  M 301 150 L 322 259 L 40 130" fill-rule="evenodd" fill="none" vector-effect="non-scaling-stroke" stroke-width="1" stroke="rgb(255,255,255)" stroke-linejoin="miter" stroke-linecap="square" stroke-miterlimit="3"/></g><g opacity="0.2"><path d=" M 62 39 L 286 25 L 358 227 L 34 273 L 62 39 Z  M 707 240 M 358 227 L 135 135 L 34 273 L 40 279 L 34 273 M 62 39 L 135 135 L 286 25 L 286 25" fill-rule="evenodd" fill="none" vector-effect="non-scaling-stroke" stroke-width="1" stroke="rgb(255,255,255)" stroke-linejoin="miter" stroke-linecap="square" stroke-miterlimit="3"/></g><g opacity="0.36"><path d=" M 168 65 L 260 80 L 300 145 L 67 274 L 39 134 L 135 134 L 168 65 Z " fill="none" vector-effect="non-scaling-stroke" stroke-width="1" stroke="rgb(255,255,255)" stroke-linejoin="miter" stroke-linecap="square" stroke-miterlimit="3"/></g><path d=" M 143 81 L 260 81 L 379 226 L 42 139 L 143 81 Z " fill="none" vector-effect="non-scaling-stroke" stroke-width="1" stroke="rgb(255,255,255)" stroke-linejoin="miter" stroke-linecap="square" stroke-miterlimit="3"/><g opacity="0.28"><path d=" M 391 6 L 62 39 L 178 259 L 371 202 L 391 6 Z  M 262 84 L 62 39 Q 375.6 204 371 196 Q 366.4 188 262 84 Z " fill-rule="evenodd" fill="none" vector-effect="non-scaling-stroke" stroke-width="1" stroke="rgb(255,255,255)" stroke-linejoin="miter" stroke-linecap="square" stroke-miterlimit="3"/></g></g></svg>