<?xml version="1.0" encoding="UTF-8" standalone="no"?><!-- Generator: Gravit.io --><svg xmlns="http://www.w3.org/2000/svg" xmlns:xlink="http://www.w3.org/1999/xlink" style="isolation:isolate" viewBox="0 0 420 300" width="420pt" height="300pt"><defs><clipPath id="_clipPath_PeCJghMcmJSDo9rQjZccF31DVmkSNUUM"><rect width="420" height="300"/></clipPath></defs><g clip-path="url(#_clipPath_PeCJghMcmJSDo9rQjZccF31DVmkSNUUM)"><rect width="420" height="300" style="fill:rgb(0,0,0)"/><g style="isolation:isolate"><circle vector-effect="non-scaling-stroke" cx="179" cy="258" r="2" fill="rgb(235,235,235)"/><clipPath id="_clipPath_gmFy4YM2dc3mdwL0xX6zdyE9qV0l6EuL"><circle vector-effect="non-scaling-stroke" cx="179" cy="258" r="2" fill="rgb(235,235,235)"/></clipPath><g clip-path="url(#_clipPath_gmFy4YM2dc3mdwL0xX6zdyE9qV0l6EuL)"><circle vector-effect="non-scaling-stroke" cx="235" cy="174" r="2" fill="rgb(235,235,235)"/></g><circle vector-effect="non-scaling-stroke" cx="195.50000000000006" cy="186.50000000000003" r="1.5" fill="rgb(235,235,235)"/><circle vector-effect="non-scaling-stroke" cx="260.5" cy="78.5" r="3.5" fill="rgb(235,235,235)"/><circle vector-effect="non-scaling-stroke" cx="118" cy="216" r="3" fill="rgb(235,235,235)"/><circle vector-effect="non-scaling-stroke" cx="401.5" cy="30.5" r="2.5" fill="rgb(235,235,235)"/><circle vector-effect="non-scaling-stroke" cx="167.75" cy="64.25" r="1.25" fill="rgb(235,235,235)"/><circle vector-effect="non-scaling-stroke" cx="391.5" cy="4.5" r="1.5" fill="rgb(235,235,235)"/><circle vector-effect="non-scaling-stroke" cx="400" cy="17" r="1" fill="rgb(235,235,235)"/><ellipse vector-effect="non-scaling-stroke" cx="384" cy="36.75" rx="2" ry="1.75" fill="rgb(235,235,235)"/><circle vector-effect="non-scaling-stroke" cx="312" cy="272" r="2" fill="rgb(235,235,235)"/><circle vector-effect="non-scaling-stroke" cx="322" cy="265" r="1" fill="rgb(235,235,235)"/><circle vector-effect="non-scaling-stroke" cx="322" cy="265" r="1" fill="rgb(235,235,235)"/><circle vector-effect="non-scaling-stroke" cx="322.5" cy="259.5" r="0.5" fill="rgb(235,235,235)"/><circle vector-effect="non-scaling-stroke" cx="225.5" cy="233.5" r="1.5" fill="rgb(235,235,235)"/><circle vector-effect="non-scaling-stroke" cx="300.5" cy="148.5" r="1.5" fill="rgb(235,235,235)"/><circle vector-effect="non-scaling-stroke" cx="292" cy="158" r="2" fill="rgb(235,235,235)"/><ellipse vector-effect="non-scaling-stroke" cx="370.49964619163455" cy="232.75" rx="2.5" ry="2.25" fill="rgb(235,235,235)"/><circle vector-effect="non-scaling-stroke" cx="34" cy="273" r="1" fill="rgb(235,235,235)"/><mask id="_mask_YqwHgSYpg4PJHAqEuzShBlRHCy1wYIdC"><circle vector-effect="non-scaling-stroke" cx="67" cy="274" r="2" fill="white" stroke="none"/></mask><circle vector-effect="non-scaling-stroke" cx="67" cy="274" r="2" fill="rgb(255,255,255)"/><circle vector-effect="non-scaling-stroke" cx="67" cy="274" r="2" fill="rgb(255,255,255)" mask="url(#_mask_YqwHgSYpg4PJHAqEuzShBlRHCy1wYIdC)" stroke-width="2" stroke="rgb(255,255,255)" stroke-linejoin="miter" stroke-linecap="square" stroke-miterlimit="3"/><circle vector-effect="non-scaling-stroke" cx="47.5" cy="245.5" r="3.5" fill="rgb(235,235,235)"/><path d=" M 367.619 201.166 C 368.079 199.576 369.744 198.659 371.334 199.119 C 372.924 199.579 373.841 201.244 373.381 202.834 C 372.92 204.424 371.256 205.341 369.666 204.881 C 368.075 204.421 367.158 202.756 367.619 201.166 Z " fill="rgb(235,235,235)"/><circle vector-effect="non-scaling-stroke" cx="305" cy="33" r="2" fill="rgb(235,235,235)"/><circle vector-effect="non-scaling-stroke" cx="147.5" cy="122.5" r="1.5" fill="rgb(235,235,235)"/><circle vector-effect="non-scaling-stroke" cx="135.2" cy="135.19999999999996" r="2.8000000000000114" fill="rgb(235,235,235)"/><circle vector-effect="non-scaling-stroke" cx="38" cy="137.99999999999994" r="2" fill="rgb(235,235,235)"/><circle vector-effect="non-scaling-stroke" cx="168.5" cy="47.5" r="1.5" fill="rgb(235,235,235)"/><circle vector-effect="non-scaling-stroke" cx="139.5" cy="80.5" r="1.5" fill="rgb(235,235,235)"/><circle vector-effect="non-scaling-stroke" cx="285.5" cy="24.5" r="1.5" fill="rgb(235,235,235)"/><circle vector-effect="non-scaling-stroke" cx="61.64999999999999" cy="38.65" r="2.650000000000002" fill="rgb(235,235,235)"/><circle vector-effect="non-scaling-stroke" cx="254" cy="82.99999999999999" r="2" fill="rgb(235,235,235)"/></g><g opacity="0"><line x1="775" y1="156" x2="764" y2="144" vector-effect="non-scaling-stroke" stroke-width="1" stroke="rgb(255,255,255)" stroke-linejoin="miter" stroke-linecap="square" stroke-miterlimit="3"/></g><g opacity="0"><path d=" M 304 33 L 168 47 L 47 248 L 304 33 Z  M 176 135 M 155 152 M 312 272 L 304 33 L 47 248 L 312 272 Z " fill-rule="evenodd" fill="none" vector-effect="non-scaling-stroke" stroke-width="1" stroke="rgb(255,255,255)" stroke-linejoin="miter" stroke-linecap="square" stroke-miterlimit="3"/></g><g opacity="0"><path d=" M 322 264 L 402 32 L 39 137.619 L 118 216 L 322 264 Z  M 301 150 L 322 259 L 39 137.619" fill-rule="evenodd" fill="none" vector-effect="non-scaling-stroke" stroke-width="1" stroke="rgb(255,255,255)" stroke-linejoin="miter" stroke-linecap="square" stroke-miterlimit="3"/></g><g opacity="0"><path d=" M 62 39 L 286 25 L 370 233 L 34 273 L 62 39 Z  M 707 240 M 370 233 L 135 135 L 34 273 L 34 273 L 34 273 M 62 39 L 135 135 L 286 25 L 286 25" fill-rule="evenodd" fill="none" vector-effect="non-scaling-stroke" stroke-width="1" stroke="rgb(255,255,255)" stroke-linejoin="miter" stroke-linecap="square" stroke-miterlimit="3"/></g><g opacity="0"><path d=" M 168 65 L 260 80 L 300 145 L 67 274 L 39 139 L 135 134 L 168 65 Z " fill="none" vector-effect="non-scaling-stroke" stroke-width="1" stroke="rgb(255,255,255)" stroke-linejoin="miter" stroke-linecap="square" stroke-miterlimit="3"/></g><g opacity="0"><path d=" M 139.439 80.896 L 254.339 82.828 L 368.749 230.772 L 39.269 137.619 L 139.439 80.896 Z " fill="none" vector-effect="non-scaling-stroke" stroke-width="1" stroke="rgb(255,255,255)" stroke-linejoin="miter" stroke-linecap="square" stroke-miterlimit="3"/></g><g opacity="0"><path d=" M 391 6 L 62 39 L 178 259 L 371 202 L 391 6 Z  M 262 84 L 62 39 Q 375.6 209 371 201 Q 366.4 193 262 84 Z " fill-rule="evenodd" fill="none" vector-effect="non-scaling-stroke" stroke-width="1" stroke="rgb(255,255,255)" stroke-linejoin="miter" stroke-linecap="square" stroke-miterlimit="3"/></g></g></svg>